<svg xmlns="http://www.w3.org/2000/svg" width="48" height="48" viewBox="0 0 48 48">
  <g fill="none" fill-rule="evenodd">
    <path fill="#000"
      d="M19.9747936,1.06726668 C22.45765,-0.355755559 25.54235,-0.355755559 28.0252064,1.06726668 L30.7451149,2.62876908 C30.1682201,3.14364945 29.5433532,3.60859836 28.8769695,4.01684178 C28.5673067,4.2065408 28.2842686,4.3683169 28.01456,4.50849238 L26.5832414,3.68643978 C24.990176,2.77118674 23.0108222,2.77118674 21.4167586,3.68643978 L7.58224324,11.621277 C5.98917783,12.5355385 5,14.2371357 5,16.0646669 L5,31.9353331 C5,33.7628643 5.98917783,35.4654531 7.58224324,36.378723 L21.4167586,44.3135602 C23.009824,45.2288133 24.9891778,45.2288133 26.5832414,44.3135602 L40.4177568,36.378723 C42.0108222,35.4654531 43,33.7628643 43,31.9353331 L43,16.0646669 C43,14.8566378 42.5677853,13.7036347 41.814638,12.7966884 C42.5337869,12.0819761 43.3277647,11.459616 44.1805979,10.9403266 C45.3378902,12.3492899 46,14.1317671 46,15.9975 L46,32.00275 C46,34.8507945 44.4571468,37.504836 41.9742904,38.9298583 L28.0252064,46.9329833 C26.783275,47.6449945 25.3923923,48 24.0005032,48 C22.6086141,48 21.216725,47.6449945 19.9747936,46.9329833 L6.02570965,38.9298583 C3.54285322,37.504836 2,34.8507945 2,32.00275 L2,15.9975 C2,13.1494555 3.54285322,10.495414 6.02570965,9.07039172 Z" />
    <path fill="#000"
      d="M35.4730901 23.1469884C30.8820904 20.8820138 27.1763233 17.1450432 24.9493357 12.5343716 24.6074528 11.8255071 23.4956548 11.8207587 23.1469884 12.5269099 20.8820138 17.1185879 17.1450432 20.824355 12.5343716 23.0506643 11.8255071 23.3932256 11.8207587 24.5050235 12.5269099 24.8536899 17.1185879 27.1186645 20.8236767 30.8556352 23.0506643 35.4656284 23.3932256 36.1744929 24.5050235 36.1792413 24.8530116 35.4730901 27.1186645 30.8820904 30.8556352 27.1763233 35.4656284 24.9500141 36.1744929 24.6074528 36.1792413 23.4956548 35.4730901 23.1469884M32.4491409 9.3356885C33.9361878 10.5009283 35.1543862 11.9893244 35.985738 13.7103662 36.0789298 13.9034554 36.2773815 14 36.4751628 14 36.6722736 14 36.8687139 13.9047963 36.9625762 13.7143889 37.1878457 13.2564724 37.4493193 12.8213512 37.7275539 12.3982981 38.1003213 11.8297576 38.5180085 11.2947396 38.9765928 10.7972666 40.0312027 9.65214028 41.2902983 8.70010315 42.7109712 8.01423414 43.0944657 7.82851986 43.0971475 7.22645694 42.7149939 7.03739041 40.2276431 5.81046931 38.220331 3.78638473 37.0142005 1.28896338 36.9216791 1.09654461 36.7232274 1 36.5247757 1 36.3283353 1 36.131895 1.09453326 36.0380327 1.28494069 34.9948203 3.40020629 33.3710027 5.16214544 31.3737472 6.38571429 31.022434 6.60092831 30.6630755 6.80474471 30.2896377 6.98509541 29.9054728 7.1708097 29.902791 7.77354306 30.285615 7.96193914 31.0586381 8.34342445 31.7786959 8.81005673 32.4491409 9.3356885Z" />
    <path fill="#000" fill-rule="nonzero"
      d="M36.5247757,1 C36.3283353,1 36.131895,1.09453326 36.0380327,1.28494069 C34.9948203,3.40020629 33.3710027,5.16214544 31.3737472,6.38571429 C31.022434,6.60092831 30.6630755,6.80474471 30.2896377,6.98509541 C29.9054728,7.1708097 29.902791,7.77354306 30.285615,7.96193914 C31.0586381,8.34342445 31.7786959,8.81005673 32.4491409,9.3356885 C33.9361878,10.5009283 35.1543862,11.9893244 35.985738,13.7103662 C36.0789298,13.9034554 36.2773815,14 36.4751628,14 C36.6722736,14 36.8687139,13.9047963 36.9625762,13.7143889 C37.1878457,13.2564724 37.4493193,12.8213512 37.7275539,12.3982981 C38.1003213,11.8297576 38.5180085,11.2947396 38.9765928,10.7972666 C40.0312027,9.65214028 41.2902983,8.70010315 42.7109712,8.01423414 C43.0944657,7.82851986 43.0971475,7.22645694 42.7149939,7.03739041 C40.2276431,5.81046931 38.220331,3.78638473 37.0142005,1.28896338 C36.9216791,1.09654461 36.7232274,1 36.5247757,1 Z" />
  </g>
</svg>
